<svg width="48" height="48" viewBox="0 0 48 48" fill="none" xmlns="http://www.w3.org/2000/svg">
<path d="M45.2 34.8C45.2 35.712 44.696 36.504 43.928 36.912L24.968 47.568C24.584 47.856 24.104 48 23.6 48C23.096 48 22.616 47.856 22.232 47.568L3.272 36.912C2.504 36.504 2 35.712 2 34.8V13.2C2 12.288 2.504 11.496 3.272 11.088L22.232 0.432C22.616 0.144 23.096 0 23.6 0C24.104 0 24.584 0.144 24.968 0.432L43.928 11.088C44.696 11.496 45.2 12.288 45.2 13.2V34.8ZM23.6 5.16L19.064 7.728L33.2 15.864L37.904 13.2L23.6 5.16ZM9.296 13.2L23.6 21.24L28.304 18.6L14.192 10.44L9.296 13.2ZM6.8 33.384L21.2 41.496V25.392L6.8 17.304V33.384ZM40.4 33.384V17.304L26 25.392V41.496L40.4 33.384Z" fill="#3DCC77"/>
</svg>
